<svg width="50" height="50" viewBox="0 0 50 50" fill="none" xmlns="http://www.w3.org/2000/svg">
<path d="M37.8907 15.7001C37.9009 15.4312 37.8554 15.163 37.7571 14.9124C37.6588 14.6619 37.5098 14.4343 37.3194 14.2441L26.3819 3.30659C26.1088 3.03319 25.7607 2.84695 25.3817 2.77143C25.0027 2.69591 24.6099 2.7345 24.2528 2.88234C23.8958 3.03017 23.5906 3.28059 23.376 3.60192C23.1613 3.92324 23.0468 4.30102 23.0469 4.68745V20.7539L15.3321 14.1416C14.9367 13.8204 14.4316 13.6664 13.9244 13.7124C13.4171 13.7584 12.9479 14.0007 12.6168 14.3876C12.2856 14.7746 12.1187 15.2756 12.1516 15.7838C12.1845 16.2921 12.4147 16.7674 12.793 17.1083L21.9991 25L12.793 32.8916C12.5906 33.0559 12.4232 33.2592 12.3006 33.4892C12.1781 33.7193 12.1028 33.9716 12.0793 34.2313C12.0557 34.4909 12.0844 34.7527 12.1636 35.0011C12.2429 35.2494 12.371 35.4794 12.5405 35.6775C12.71 35.8756 12.9175 36.0377 13.1507 36.1544C13.3838 36.271 13.638 36.3398 13.8982 36.3566C14.1583 36.3735 14.4192 36.3381 14.6655 36.2525C14.9118 36.1669 15.1384 36.0329 15.3321 35.8583L23.0469 29.246V45.3125C23.047 45.6987 23.1616 46.0762 23.3762 46.3973C23.5908 46.7184 23.8958 46.9687 24.2527 47.1165C24.6095 47.2643 25.0021 47.303 25.3809 47.2276C25.7598 47.1523 26.1077 46.9664 26.3809 46.6933L37.3184 35.7558C37.5086 35.5654 37.6575 35.3378 37.7556 35.0871C37.8537 34.8365 37.899 34.5683 37.8885 34.2994C37.878 34.0304 37.8121 33.7665 37.6949 33.5243C37.5776 33.282 37.4115 33.0666 37.2071 32.8916L28.001 25L37.2071 17.1083C37.412 16.9335 37.5785 16.7181 37.6961 16.4757C37.8137 16.2334 37.88 15.9693 37.8907 15.7001ZM33.0645 34.4853L26.9532 40.5976V29.247L33.0645 34.4853ZM26.9532 20.7539V9.40229L33.0655 15.5146L26.9532 20.7539Z" fill="#FFFFFD"/>
</svg>
