<svg width="50" height="50" viewBox="0 0 50 50" fill="none" xmlns="http://www.w3.org/2000/svg">
<path d="M46.0938 41.6875H41.4062C40.9173 41.6875 40.4483 41.4932 40.1025 41.1475C39.7568 40.8017 39.5625 40.3327 39.5625 39.8438V10.1562C39.5625 9.66726 39.7568 9.19829 40.1025 8.85252C40.4483 8.50675 40.9173 8.3125 41.4062 8.3125H46.0938C46.5827 8.3125 47.0517 8.50675 47.3975 8.85252C47.7432 9.19829 47.9375 9.66726 47.9375 10.1562V39.8438C47.9375 40.3327 47.7432 40.8017 47.3975 41.1475C47.0517 41.4932 46.5827 41.6875 46.0938 41.6875ZM33.5938 41.6875H28.9062C28.4173 41.6875 27.9483 41.4932 27.6025 41.1475C27.2568 40.8017 27.0625 40.3327 27.0625 39.8438V17.9688C27.0625 17.4798 27.2568 17.0108 27.6025 16.665C27.9483 16.3193 28.4173 16.125 28.9062 16.125H33.5938C34.0827 16.125 34.5517 16.3193 34.8975 16.665C35.2432 17.0108 35.4375 17.4798 35.4375 17.9688V39.8438C35.4375 40.3327 35.2432 40.8017 34.8975 41.1475C34.5517 41.4932 34.0827 41.6875 33.5938 41.6875ZM21.0938 41.6875H16.4062C15.9173 41.6875 15.4483 41.4932 15.1025 41.1475C14.7568 40.8017 14.5625 40.3327 14.5625 39.8438V24.2188C14.5625 23.7298 14.7568 23.2608 15.1025 22.915C15.4483 22.5693 15.9173 22.375 16.4062 22.375H21.0938C21.5827 22.375 22.0517 22.5693 22.3975 22.915C22.7432 23.2608 22.9375 23.7298 22.9375 24.2188V39.8438C22.9375 40.3327 22.7432 40.8017 22.3975 41.1475C22.0517 41.4932 21.5827 41.6875 21.0938 41.6875ZM8.59375 41.6875H3.90625C3.41726 41.6875 2.94829 41.4932 2.60252 41.1475C2.25675 40.8017 2.0625 40.3327 2.0625 39.8438V30.4688C2.0625 29.9798 2.25675 29.5108 2.60252 29.165C2.94829 28.8193 3.41726 28.625 3.90625 28.625H8.59375C9.08274 28.625 9.55171 28.8193 9.89748 29.165C10.2432 29.5108 10.4375 29.9798 10.4375 30.4688V39.8438C10.4375 40.3327 10.2432 40.8017 9.89748 41.1475C9.55171 41.4932 9.08274 41.6875 8.59375 41.6875Z" fill="#FFFFFD" stroke="#FFFFFD"/>
</svg>
