<svg width="50" height="50" viewBox="0 0 50 50" fill="none" xmlns="http://www.w3.org/2000/svg">
<path d="M33.5204 30.0905L33.5697 30.1344C33.8478 30.404 34.0155 30.7687 34.0384 31.1569C34.0626 31.5676 33.9226 31.9711 33.6492 32.2787C33.3759 32.5862 32.9916 32.7725 32.5809 32.7967C32.1702 32.8209 31.7667 32.6809 31.4591 32.4075L31.4591 32.4075C29.6873 30.8328 27.3993 29.963 25.0288 29.963C22.6584 29.963 20.3703 30.8328 18.5985 32.4075L18.5985 32.4075L18.5933 32.4122C18.4417 32.5508 18.264 32.6579 18.0707 32.7273C17.8773 32.7966 17.6721 32.8269 17.4669 32.8163C17.2618 32.8057 17.0608 32.7544 16.8756 32.6655C16.6904 32.5766 16.5248 32.4517 16.3882 32.2982C16.2517 32.1447 16.147 31.9656 16.0803 31.7713C16.0136 31.577 15.9861 31.3714 15.9995 31.1664C16.0129 30.9614 16.0669 30.7612 16.1584 30.5772L15.7106 30.3546L16.1584 30.5772C16.2498 30.3933 16.3769 30.2293 16.5323 30.0949L16.5323 30.0949L16.5373 30.0905C18.8769 28.0107 21.8984 26.8619 25.0288 26.8619C28.1592 26.8619 31.1807 28.0107 33.5204 30.0905Z" fill="#FFFFFD" stroke="#FFFFFD"/>
<path d="M10.5368 24.1635L10.5368 24.1636L10.5452 24.1558C14.4687 20.4764 19.6479 18.4321 25.0267 18.4395L25.0281 18.4395C30.4069 18.4321 35.586 20.4764 39.5096 24.1558L39.5095 24.1559L39.518 24.1635C39.6718 24.3012 39.7965 24.4683 39.8848 24.6549C39.9732 24.8414 40.0234 25.0438 40.0325 25.25C40.0417 25.4563 40.0095 25.6623 39.938 25.8559C39.8665 26.0496 39.757 26.227 39.616 26.3778C39.475 26.5286 39.3053 26.6497 39.1168 26.734C38.9284 26.8184 38.725 26.8643 38.5186 26.869C38.3123 26.8737 38.107 26.8371 37.9149 26.7615C37.7228 26.6858 37.5478 26.5725 37.4001 26.4283L37.4001 26.4283L37.3923 26.4209C34.0385 23.2854 29.6187 21.5411 25.0274 21.5411C20.4361 21.5411 16.0163 23.2854 12.6625 26.4209L12.6624 26.4208L12.6547 26.4283C12.507 26.5725 12.3319 26.6858 12.1398 26.7615C11.9477 26.8371 11.7425 26.8737 11.5361 26.869C11.3297 26.8643 11.1263 26.8184 10.9379 26.734C10.7495 26.6497 10.5798 26.5286 10.4388 26.3778C10.2978 26.227 10.1883 26.0496 10.1168 25.8559C10.0452 25.6623 10.0131 25.4563 10.0222 25.25C10.0313 25.0438 10.0815 24.8414 10.1699 24.6549C10.2583 24.4683 10.383 24.3012 10.5368 24.1635Z" fill="#FFFFFD" stroke="#FFFFFD"/>
<path d="M44.7843 17.5469L44.7849 17.5464C45.0903 17.8205 45.2747 18.2045 45.2976 18.6142C45.3205 19.0249 45.1793 19.4279 44.9051 19.7346L45.2778 20.0679L44.9051 19.7346C44.6309 20.0412 44.2461 20.2263 43.8354 20.2492C43.4247 20.2721 43.0217 20.131 42.7151 19.8568L42.7146 19.8563C37.846 15.5143 31.5504 13.1147 25.0268 13.1147C18.5033 13.1147 12.2076 15.5143 7.33906 19.8563L7.33896 19.8562L7.32994 19.8647C7.17916 20.006 7.00165 20.1157 6.80784 20.1875C6.61404 20.2592 6.40785 20.2915 6.20139 20.2824L6.17944 20.7819L6.20139 20.2824C5.99493 20.2734 5.79237 20.2231 5.6056 20.1346L5.39156 20.5865L5.6056 20.1346C5.41884 20.0462 5.25164 19.9213 5.11383 19.7673L4.74123 20.1007L5.11383 19.7673C4.97602 19.6133 4.87038 19.4333 4.80312 19.2379L4.33272 19.3998L4.80312 19.2379C4.73586 19.0425 4.70834 18.8356 4.72216 18.6294C4.73599 18.4232 4.79089 18.2219 4.88363 18.0372C4.97638 17.8525 5.1051 17.6882 5.26223 17.554L5.26231 17.5541L5.27036 17.5469C10.7078 12.6954 17.7402 10.0142 25.0273 10.0142C32.3145 10.0142 39.3469 12.6954 44.7843 17.5469Z" fill="#FFFFFD" stroke="#FFFFFD"/>
<path d="M27.6523 38.4189C27.6523 39.8687 26.4771 41.0439 25.0273 41.0439C23.5776 41.0439 22.4023 39.8687 22.4023 38.4189C22.4023 36.9692 23.5776 35.7939 25.0273 35.7939C26.4771 35.7939 27.6523 36.9692 27.6523 38.4189Z" fill="#FFFFFD" stroke="#FFFFFD"/>
</svg>
